<svg xmlns="http://www.w3.org/2000/svg" xmlns:xlink="http://www.w3.org/1999/xlink">
    <defs>
        <symbol id="watch" viewBox="0 0 30 30">
            <path fill-rule="evenodd" clip-rule="evenodd" d="M21,8.3V6c0-1.7-1.3-3-3-3h-6c-1.7,0-3,1.3-3,3v2.3 c-1.8,1.6-3,4-3,6.7c0,2.7,1.2,5.1,3,6.7V24c0,1.7,1.3,3,3,3h6c1.7,0,3-1.3,3-3v-2.3c1.8-1.6,3-4,3-6.7C24,12.3,22.8,9.9,21,8.3z M11,6c0-0.6,0.4-1,1-1h6c0.6,0,1,0.4,1,1v0.9C17.8,6.3,16.4,6,15,6s-2.8,0.3-4,0.9V6z M19,24c0,0.6-0.4,1-1,1h-6 c-0.6,0-1-0.4-1-1v-0.9c1.2,0.6,2.6,0.9,4,0.9s2.8-0.3,4-0.9V24z M15,22c-3.9,0-7-3.1-7-7c0-3.9,3.1-7,7-7s7,3.1,7,7 C22,18.9,18.9,22,15,22z M16,14.6V11c0-0.6-0.4-1-1-1s-1,0.4-1,1v4c0,0.3,0.1,0.5,0.3,0.7l2,2c0.2,0.2,0.5,0.3,0.7,0.3 s0.5-0.1,0.7-0.3c0.4-0.4,0.4-1,0-1.4L16,14.6z"/>
        </symbol>

        <symbol id="minimize" viewBox="0 0 30 30">
            <path fill-rule="evenodd" clip-rule="evenodd" d="M13,5c-0.6,0-1,0.4-1,1v4.6L5.7,4.3c-0.4-0.4-1-0.4-1.4,0 c-0.4,0.4-0.4,1,0,1.4l6.3,6.3H6c-0.6,0-1,0.4-1,1c0,0.6,0.4,1,1,1h7c0.6,0,1-0.5,1-1V6C14,5.4,13.5,5,13,5z M25.7,24.3L19.4,18 H24c0.6,0,1-0.4,1-1c0-0.6-0.4-1-1-1h-7c-0.6,0-1,0.5-1,1v7c0,0.6,0.4,1,1,1s1-0.4,1-1v-4.6l6.3,6.3c0.4,0.4,1,0.4,1.4,0 C26.1,25.3,26.1,24.7,25.7,24.3z"/>
        </symbol>

        <symbol id="archive" viewBox="0 0 30 30">
            <path fill-rule="evenodd" clip-rule="evenodd" d="M21,6H9l-6,6v9c0,1.7,1.4,3,3,3h18c1.7,0,3-1.3,3-3v-9L21,6z M9.8,8h10.4l4,4L19,12c0,2-1.8,4-4,4c-2.2,0-4-2-4-4H5.8L9.8,8z M25,21c0,0.6-0.4,1-1,1H6c-0.6,0-1-0.5-1-1v-7h4.3 c0.9,2.3,3.2,4,5.7,4c2.5,0,4.8-1.7,5.6-4l4.4,0V21z"/>
        </symbol>

        <symbol id="twitter" viewBox="0 0 30 30">
            <path d="M26.2,9.6c0,0.2,0,0.5,0,0.7c0,7.5-5.7,16.1-16.1,16.1c-3.2,0-6.2-0.9-8.7-2.5C1.8,23.9,2.3,24,2.8,24 c2.7,0,5.1-0.9,7-2.4c-2.5,0-4.6-1.7-5.3-3.9c0.3,0.1,0.7,0.1,1.1,0.1c0.5,0,1-0.1,1.5-0.2C4.5,17,2.5,14.7,2.5,12c0,0,0,0,0-0.1 c0.8,0.4,1.6,0.7,2.6,0.7c-1.5-1-2.5-2.7-2.5-4.7c0-1,0.3-2,0.8-2.8c2.8,3.4,7,5.7,11.7,5.9c-0.1-0.4-0.1-0.8-0.1-1.3 c0-3.1,2.5-5.7,5.7-5.7c1.6,0,3.1,0.7,4.1,1.8c1.3-0.3,2.5-0.7,3.6-1.4c-0.4,1.3-1.3,2.4-2.5,3.1C26.9,7.4,28,7.1,29,6.7 C28.2,7.8,27.3,8.8,26.2,9.6z"/>
        </symbol>

        <symbol id="facebook" viewBox="0 0 30 30">
            <path d="M26,1H5C3.3,1,2,2.3,2,4v21c0,1.7,1.3,3,3,3h10.5V17.5h-3v-3.7h3v-3.1c0-3.2,1.8-5.5,5.6-5.5l2.7,0v3.9h-1.8 c-1.5,0-2.1,1.1-2.1,2.2v2.5h3.9L23,17.5h-3V28h6c1.7,0,3-1.3,3-3V4C29,2.3,27.7,1,26,1z"/>
        </symbol>

        <symbol id="pinterest" viewBox="0 0 30 30">
            <path d="M25.9,8.7C25.1,3.1,19.5,0.3,13.6,1C8.9,1.5,4.2,5.3,4,10.7c-0.1,3.3,0.8,5.8,4,6.5c1.4-2.4-0.4-2.9-0.7-4.7 c-1.2-7.2,8.3-12,13.2-7c3.4,3.5,1.2,14.1-4.3,13c-5.3-1.1,2.6-9.5-1.6-11.2c-3.4-1.4-5.2,4.1-3.6,6.9c-1,4.7-3,9.1-2.2,15 c2.7-2,3.6-5.7,4.3-9.6c1.3,0.8,2.1,1.7,3.8,1.8C23.2,21.9,26.7,15,25.9,8.7z"/>
        </symbol>

        <symbol id="google" viewBox="0 0 30 30">
            <path d="M3.4,8.6c0,2.2,0.7,3.9,2.2,4.8c1.2,0.8,2.6,0.9,3.3,0.9c0.2,0,0.3,0,0.4,0c0,0-0.2,1.5,0.9,3h-0.1 c-1.9,0-8.2,0.4-8.2,5.6c0,5.3,5.8,5.5,7,5.5c0.1,0,0.1,0,0.1,0c0,0,0.1,0,0.2,0c0.7,0,2.7-0.1,4.5-1c2.3-1.1,3.5-3.1,3.5-5.8 c0-2.6-1.8-4.2-3.1-5.4c-0.8-0.7-1.5-1.3-1.5-1.9c0-0.6,0.5-1.1,1.1-1.6c1-0.9,2-2.2,2-4.7c0-2.2-0.3-3.7-2-4.6 C14,3.3,14.7,3.2,15,3.2c0.9-0.1,2.3-0.3,2.3-1V2h-6.9C10.3,2,3.4,2.3,3.4,8.6z M14.6,22.1c0.1,2.1-1.7,3.7-4.4,3.9 c-2.8,0.2-5-1-5.1-3.1c-0.1-1,0.4-2,1.3-2.8c0.9-0.8,2.1-1.3,3.4-1.4c0.2,0,0.3,0,0.5,0C12.7,18.6,14.4,20.1,14.6,22.1z M12.8,7.1 c0.7,2.4-0.3,4.9-2,5.3c-0.2,0.1-0.4,0.1-0.6,0.1c-1.5,0-3-1.5-3.5-3.6C6.4,7.8,6.4,6.8,6.8,5.8c0.3-1,1-1.6,1.7-1.8 c0.2-0.1,0.4-0.1,0.6-0.1C10.9,3.9,12,4.6,12.8,7.1z M24.4,12.2V7.7h-3v4.5h-4.5v3h4.5v4.5h3v-4.5h4.5v-3H24.4z"/>
        </symbol>

        <symbol id="webflow" viewBox="0 0 30 30">
            <path d="M21.9,11.4c0,0-2.2,7-2.4,7.5c-0.1-0.6-1.7-13.1-1.7-13.1c-3.8,0-5.8,2.7-6.9,5.5c0,0-2.7,7-2.9,7.6c0-0.5-0.4-7.5-0.4-7.5 c-0.2-3.5-3.4-5.6-6-5.6l3.1,18.9c4,0,6.1-2.7,7.2-5.5c0,0,2.4-6.2,2.5-6.4c0,0.3,1.7,12,1.7,12c4,0,6.1-2.5,7.3-5.3L29,5.8 C25.1,5.8,23,8.5,21.9,11.4z"/>
        </symbol>
    </defs>
</svg>